<?xml version="1.0" encoding="utf-8"?>
<svg version="1.2" baseProfile="tiny-ps" xmlns="http://www.w3.org/2000/svg">
  <title>Souper.ml</title>
  <path d="m0 0v290h290v-290z" fill="#426cb4" />
  <path d="m128.67 48.333c-.445.4445.611.3889.666.3334.445-.4445-.611-.3889-.666-.3334z" fill="#c3cadf" />
  <path d="m105 163h-25v50h25l-1-12c19.41 23.34 63.725 19.56 81.485-4.004 8.661-11.491 9.75-29.69 5.156-42.996-7.246-20.991-31.227-28.413-49.641-36.424-9.434-4.105-23.087-10.457-25.606-21.576-4.723-20.856 23.711-26.203 37.602-19.004 8.888 4.6063 10.003 12.991 10.004 22.004h25v-48h-25c.283 3.4579 1.062 6.664 2 10-3.62-3.426-6.317-6.9378-11-9.0988-20.225-9.3334-48.361-1.5775-60.452 17.099-5.3547 8.271-6.5934 16.38-6.547 26 .03 6.23.9977 12.377 3.8094 18 9.6688 19.336 31.83 25.57 50.19 33.427 9.174 3.927 21.902 10.267 22.891 21.573 1.162 13.275-12.042 21.436-23.891 21.961-17.755.785-34.594-7.415-35-26.961z" fill="#fff" />
  <path d="m141.67 48.333c-.445.4445.611.3889.666.3334.445-.4445-.611-.3889-.666-.3334z" fill="#b8c1da" />
  <path d="m143 48 1 1z" fill="#8393be" />
  <path d="m122.67 49.333c-.445.4445.611.3889.666.3334.445-.4445-.611-.3889-.666-.3334z" fill="#97a0b8" />
  <path d="m147.67 49.333c-.445.4445.611.3889.666.3334.445-.4445-.611-.389-.666-.3334z" fill="#677daf" />
  <path d="m118.67 50.333c-.445.4446.611.3889.666.3334.445-.4445-.611-.3889-.666-.3334z" fill="#a9afc2" />
  <path d="m150 50 1 1z" fill="#b4b9cb" />
  <path d="m115 51 1 1z" fill="#8392b7" />
  <path d="m153 51 1 1z" fill="#9da8c4" />
  <path d="m188 51v48c1.552-3.6986 1-8.0172 1-12v-23c0-4.2603.661-9.0414-1-13z" fill="#818ba8" />
  <path d="m113 52 1 1z" fill="#a7afc5" />
  <path d="m155 52 1 1z" fill="#9ca7c5" />
  <path d="m109 54 1 1z" fill="#c8cddd" />
  <path d="m158 54 1 1z" fill="#828fb2" />
  <path d="m193 54c2.328 7.9155 14.894 13.678 22 17-2.424-7.3594-15.449-13.353-22-17z" fill="#f5f5f5" />
  <path d="m107 55 1 1z" fill="#9aa4c0" />
  <path d="m163.33 55.667c-.055.0555-.111 1.1111.334.6666.055-.0555.111-1.111-.334-.6666z" fill="#919dbf" />
  <path d="m195 55 1 1z" fill="#8c99bd" />
  <path d="m104 57 1 1z" fill="#97a1bf" />
  <path d="m193 57 1 1z" fill="#9fa8c1" />
  <path d="m198 57 1 1z" fill="#8b98bd" />
  <path d="m103 58 1 1z" fill="#c3c8d6" />
  <path d="m162 58 1 1z" fill="#909bb8" />
  <path d="m163 59 1 1z" fill="#8999c2" />
  <path d="m164 59-1 2h2c0-1.8533.3-1.3501-1-2z" fill="#dce0ec" />
  <path d="m196 59 1 1z" fill="#9ba5c0" />
  <path d="m201 59 1 1z" fill="#8997bc" />
  <path d="m193 61 1 1z" fill="#b3bacf" />
  <path d="m199 61 1 1z" fill="#95a0be" />
  <path d="m204 61 1 1z" fill="#909dc0" />
  <path d="m193 62c2.363 7.6846 15.269 13.252 22 17-1.258-7.4375-15.36-14.483-22-17z" fill="#f8f8f8" />
  <path d="m196 63 1 1z" fill="#bac1d4" />
  <path d="m202 63 1 1z" fill="#939ebe" />
  <path d="m207 63 1 1z" fill="#8e9cbf" />
  <path d="m199 65 1 1z" fill="#bcc2d5" />
  <path d="m205 65 1 1z" fill="#919dbe" />
  <path d="m210 65 1 1z" fill="#8d9bbe" />
  <path d="m95 66 1 1z" fill="#c1c7d7" />
  <path d="m195 66 1 1z" fill="#939ebd" />
  <path d="m202 67 1 1z" fill="#bec4d5" />
  <path d="m213 67 1 1z" fill="#8b99bd" />
  <path d="m198 68 1 1z" fill="#919dbd" />
  <path d="m210 68 1 1z" fill="#c3c7d6" />
  <path d="m205 69 1 1z" fill="#c0c6d6" />
  <path d="m215 69v3c.696-1.5537.696-1.4463 0-3z" fill="#c7ccdb" />
  <path d="m193 70c2.219 7.5448 14.938 14.323 22 17-2.222-7.5099-15.186-13.777-22-17z" fill="#f8f8f9" />
  <path d="m194 70 1 1z" fill="#a0a8c1" />
  <path d="m201 70 1 1z" fill="#909dbe" />
  <path d="m213 70 1 1z" fill="#c0c5d4" />
  <path d="m208 71 1 1z" fill="#c1c6d5" />
  <path d="m214 71 1 1z" fill="#8391b6" />
  <path d="m91 72 1 1z" fill="#b6bccf" />
  <path d="m197 72 1 1z" fill="#b9c0d3" />
  <path d="m204 72 1 1z" fill="#8e9bbe" />
  <path d="m210 72 1 1z" fill="#8c9abe" />
  <path d="m193 73 1 1z" fill="#98a2be" />
  <path d="m206 73 1 1z" fill="#c1c6d4" />
  <path d="m90 74 1 1z" fill="#b9bfd0" />
  <path d="m130.67 74.333c-.445.4445.611.3889.666.3334.445-.4445-.611-.389-.666-.3334z" fill="#8694b8" />
  <path d="m144 74c1.248.6848 1.548.7488 3 1-1.248-.6848-1.548-.7488-3-1z" fill="#8a95b2" />
  <path d="m200 74 1 1z" fill="#bcc2d5" />
  <path d="m213 74 1 1z" fill="#8d9abe" />
  <path d="m126 75 1 1z" fill="#b4baca" />
  <path d="m149 75 1 1z" fill="#8492b6" />
  <path d="m196 75 1 1z" fill="#98a2bd" />
  <path d="m209 75 1 1z" fill="#c1c6d5" />
  <path d="m89 76 1 1z" fill="#abb3cb" />
  <path d="m124 76 1 1z" fill="#a7afc8" />
  <path d="m152 76 1 1z" fill="#9ca6c2" />
  <path d="m203 76 1 1z" fill="#bec4d5" />
  <path d="m215 76v3c.696-1.5537.696-1.4463 0-3z" fill="#c6cbdb" />
  <path d="m154 77 1 1z" fill="#9ea8c3" />
  <path d="m199 77 1 1z" fill="#9ca5bf" />
  <path d="m212 77 1 1z" fill="#c0c5d5" />
  <path d="m121 78 1 1z" fill="#8c98b9" />
  <path d="m138 78c5.079 5.2426 13.175 10.413 20 13-2.271-7.3853-12.832-12.014-20-13z" fill="#f9f9f9" />
  <path d="m141 78c1.248.6848 1.548.7488 3 1-1.248-.6848-1.548-.7488-3-1z" fill="#abb0be" />
  <path d="m193 78c1.348 7.972 15.374 14.311 22 18-1.348-7.972-15.374-14.311-22-18z" fill="#fafafa" />
  <path d="m206 78 1 1z" fill="#bfc4d4" />
  <path d="m88 79 1 1z" fill="#bac0d1" />
  <path d="m129 79 1 1z" fill="#a4acc1" />
  <path d="m129 80c4.912 5.3595 16.538 14.763 24 14-4.912-5.3595-16.538-14.763-24-14z" fill="#f9f9f9" />
  <path d="m132 79 1 1z" fill="#b7bed2" />
  <path d="m157 79 1 1z" fill="#cbd0e1" />
  <path d="m195 79 1 1z" fill="#a8b0c8" />
  <path d="m202 79 1 1z" fill="#97a1bd" />
  <path d="m119 80 1 1z" fill="#8392b7" />
  <path d="m128 80 1 1z" fill="#c3c9db" />
  <path d="m146 80 1 1z" fill="#bec4d4" />
  <path d="m158 80 1 1z" fill="#cbd0e1" />
  <path d="m209 80 1 1z" fill="#c5c9d7" />
  <path d="m118 81 1 1z" fill="#b2bad0" />
  <path d="m135 81 1 1z" fill="#b7bed3" />
  <path d="m142 81 1 1z" fill="#99a3be" />
  <path d="m198 81 1 1z" fill="#a7afc7" />
  <path d="m205 81 1 1z" fill="#99a3be" />
  <path d="m211 81 1 1z" fill="#929ec0" />
  <path d="m87 82 1 1z" fill="#848faf" />
  <path d="m123.67 82.333c-.445.4445.611.3889.666.3334.445-.4444-.611-.3889-.666-.3334z" fill="#8896ba" />
  <path d="m131 82 1 1z" fill="#b7bed4" />
  <path d="m149 82 1 1z" fill="#bac0d2" />
  <path d="m194 82 1 1z" fill="#a7afc9" />
  <path d="m122 84c5.073 5.4946 17.468 14.826 25 15-3.742-6.1682-17.696-15.75-25-15z" fill="#f8f8f9" />
  <path d="m125 83 1 1z" fill="#c3c8d8" />
  <path d="m138 83 1 1z" fill="#b8bfd3" />
  <path d="m145 83 1 1z" fill="#9ba5c0" />
  <path d="m160 83 1 1z" fill="#9ca7c3" />
  <path d="m201 83 1 1z" fill="#a5aec6" />
  <path d="m208 83 1 1z" fill="#9ca5c0" />
  <path d="m214 83 1 1z" fill="#94a0c1" />
  <path d="m134 84 1 1z" fill="#b6bed4" />
  <path d="m152 84 1 1z" fill="#b6bdd1" />
  <path d="m197 84 1 1z" fill="#a9b1ca" />
  <path d="m215 84-1 4c1.656-1.4043 1.751-1.9535 1-4z" fill="#d3d8e6" />
  <path d="m128 85 1 1z" fill="#c6cad9" />
  <path d="m141 85 1 1z" fill="#bac0d3" />
  <path d="m148 85 1 1z" fill="#99a4c0" />
  <path d="m161 85 1 1z" fill="#a7afc7" />
  <path d="m204 85 1 1z" fill="#a3acc5" />
  <path d="m211 85 1 1z" fill="#9ea7c1" />
  <path d="m124 86 1 1z" fill="#8795ba" />
  <path d="m137 86 1 1z" fill="#98a2bd" />
  <path d="m155 86 1 1z" fill="#b1b9cf" />
  <path d="m193 86 1 1z" fill="#b6bed4" />
  <path d="m200 86 1 1z" fill="#aab2ca" />
  <path d="m115.33 87.667c-.055.0555-.111 1.1111.334.6666.055-.0556.111-1.111-.334-.6666z" fill="#a2acc7" />
  <path d="m144 87 1 1z" fill="#bbc1d4" />
  <path d="m151 87 1 1z" fill="#97a2c0" />
  <path d="m193 87c2.301 7.4829 15.196 13.781 22 17-2.219-7.5448-14.938-14.323-22-17z" fill="#f9fafa" />
  <path d="m207 87 1 1z" fill="#a1abc5" />
  <path d="m86 88v10c1.3457-3.207 1.3457-6.793 0-10z" fill="#d7dbe6" />
  <path d="m120 88 1 1z" fill="#ccd1e1" />
  <path d="m127 88 1 1z" fill="#8493ba" />
  <path d="m133 88 1 1z" fill="#8391b6" />
  <path d="m140 88 1 1z" fill="#9aa4bf" />
  <path d="m162 88v3c.696-1.5537.696-1.4463 0-3z" fill="#95a0be" />
  <path d="m196 88 1 1z" fill="#aab2ca" />
  <path d="m203 88 1 1z" fill="#a9b2ca" />
  <path d="m119.33 89.667c-.055.0555-.111 1.1111.334.6666.055-.0556.111-1.111-.334-.6666z" fill="#7f8cad" />
  <path d="m120 89c2.368 7.1894 16.158 14.407 23 17-2.274-7.3929-15.901-14.738-23-17z" fill="#f9f9f9" />
  <path d="m122 89 1 1z" fill="#8794b8" />
  <path d="m129 89 1 1z" fill="#c4c9d8" />
  <path d="m147 89 1 1z" fill="#bec4d5" />
  <path d="m154 89 1 1z" fill="#94a0c0" />
  <path d="m210 89 1 1z" fill="#a4adc6" />
  <path d="m136 90 1 1z" fill="#8e9bbc" />
  <path d="m143 90 1 1z" fill="#9aa4bf" />
  <path d="m158 90 1 1z" fill="#8f9ab6" />
  <path d="m199 90 1 1z" fill="#abb3c9" />
  <path d="m206 90 1 1z" fill="#acb4cc" />
  <path d="m125 91 1 1z" fill="#8694b8" />
  <path d="m132 91 1 1z" fill="#c2c7d8" />
  <path d="m150 91 1 1z" fill="#bfc5d6" />
  <path d="m158 91 1 1z" fill="#d7dbe9" />
  <path d="m162 91v8c1.161-2.7699 1.161-5.2301 0-8z" fill="#4464a0" />
  <path d="m195 91 1 1z" fill="#a6afc9" />
  <path d="m213 91 1 1z" fill="#a0aac5" />
  <path d="m121 92 1 1z" fill="#c1c6d6" />
  <path d="m139 92 1 1z" fill="#909cbc" />
  <path d="m146 92 1 1z" fill="#99a4c0" />
  <path d="m202 92 1 1z" fill="#a7afc6" />
  <path d="m209 92 1 1z" fill="#acb5cc" />
  <path d="m128 93 1 1z" fill="#8693b7" />
  <path d="m135 93 1 1z" fill="#c0c6d8" />
  <path d="m153 93 1 1z" fill="#abb5d0" />
  <path d="m198 93 1 1z" fill="#949ebc" />
  <path d="m215 93v3c.696-1.5537.696-1.4463 0-3z" fill="#c6cbda" />
  <path d="m124 94 1 1z" fill="#c2c8d8" />
  <path d="m142 94 1 1z" fill="#929dbc" />
  <path d="m149 94 1 1z" fill="#99a4c0" />
  <path d="m205 94 1 1z" fill="#bac1d4" />
  <path d="m212 94 1 1z" fill="#aeb6cd" />
  <path d="m115 95v3c.696-1.5537.696-1.4463 0-3z" fill="#acb4ca" />
  <path d="m131 95 1 1z" fill="#8d9abd" />
  <path d="m138 95 1 1z" fill="#bfc5d8" />
  <path d="m193 95c2.219 7.545 14.938 14.323 22 17-2.301-7.483-15.196-13.781-22-17z" fill="#f9f9fa" />
  <path d="m194 95 1 1z" fill="#a5adc7" />
  <path d="m201 95 1 1z" fill="#949fbc" />
  <path d="m127 96 1 1z" fill="#c3c8d8" />
  <path d="m145 96 1 1z" fill="#939dbb" />
  <path d="m208 96 1 1z" fill="#bac1d4" />
  <path d="m120.67 97.333c-.445.4445.611.3889.666.3334.445-.4445-.611-.3889-.666-.3334z" fill="#b0b6c8" />
  <path d="m134 97 1 1z" fill="#8d9abc" />
  <path d="m141 97 1 1z" fill="#bdc3d7" />
  <path d="m197 97 1 1z" fill="#a9b1c9" />
  <path d="m204 97 1 1z" fill="#939fbd" />
  <path d="m121 98c4.242 7.003 13.272 12.554 21 15-3.497-6.843-13.926-12.41-21-15z" fill="#f5f5f5" />
  <path d="m130 98 1 1z" fill="#bfc5d6" />
  <path d="m193 98 1 1z" fill="#a6afc8" />
  <path d="m211 98 1 1z" fill="#bfc5d6" />
  <path d="m116 99 1 1z" fill="#aab2c8" />
  <path d="m121 99 1 1z" fill="#8290b5" />
  <path d="m124 99 1 1z" fill="#c4cadb" />
  <path d="m137 99 1 1z" fill="#909dbd" />
  <path d="m144 99 1 1z" fill="#b8bfd5" />
  <path d="m200 99 1 1z" fill="#b0b7cc" />
  <path d="m207 99 1 1z" fill="#8f9bbc" />
  <path d="m122 100 1 1z" fill="#c4c9d9" />
  <path d="m133 100 1 1z" fill="#bfc5d7" />
  <path d="m196 100 1 1z" fill="#a3acc7" />
  <path d="m214 100 1 1z" fill="#c1c6d6" />
  <path d="m117 101 1 1z" fill="#acb3c9" />
  <path d="m140 101 1 1z" fill="#8f9bbc" />
  <path d="m203 101 1 1z" fill="#acb3c9" />
  <path d="m210 101 1 1z" fill="#8d9abc" />
  <path d="m215 101v4c.71-1.759.71-2.241 0-4z" fill="#dcdee5" />
  <path d="m87.333 102.67c-.0555.055-.1111 1.111.3334.666.0556-.055.111-1.111-.3334-.666z" fill="#cbd0e1" />
  <path d="m129 102 1 1z" fill="#8493b8" />
  <path d="m136 102 1 1z" fill="#c1c7d8" />
  <path d="m199 102 1 1z" fill="#929dbb" />
  <path d="m125 103 1 1z" fill="#b9c0d4" />
  <path d="m143.33 103.67c-.055.055-.111 1.111.334.666.055-.055.111-1.111-.334-.666z" fill="#8594b9" />
  <path d="m176 103c5.435 5.61 15.075 12.469 23 13-5.445-5.941-14.802-12.557-23-13z" fill="#fafafa" />
  <path d="m181 103 1 1z" fill="#b1b9cf" />
  <path d="m188 103 1 1z" fill="#95a2c6" />
  <path d="m189 103c5.445 5.941 14.801 12.557 23 13-5.765-5.521-14.869-12.455-23-13z" fill="#fafafa" />
  <path d="m206 103 1 1z" fill="#bcc2d5" />
  <path d="m213 103 1 1z" fill="#8c9abd" />
  <path d="m132 104 1 1z" fill="#8895b7" />
  <path d="m139 104 1 1z" fill="#c1c7d9" />
  <path d="m195 104 1 1z" fill="#a4aec9" />
  <path d="m202 104 1 1z" fill="#919cbb" />
  <path d="m120 105 1 1z" fill="#b4baca" />
  <path d="m128 105 1 1z" fill="#b3bad1" />
  <path d="m184 105 1 1z" fill="#b0b8ce" />
  <path d="m191 105 1 1z" fill="#a0aac6" />
  <path d="m209 105 1 1z" fill="#bec4d6" />
  <path d="m135 106 1 1z" fill="#96a1bf" />
  <path d="m142 106 1 1z" fill="#bec6dc" />
  <path d="m180 106 1 1z" fill="#aab2c7" />
  <path d="m198 106 1 1z" fill="#a8b1ca" />
  <path d="m205 106 1 1z" fill="#909bbb" />
  <path d="m88 107 1 1z" fill="#a2abc4" />
  <path d="m131 107 1 1z" fill="#afb7d0" />
  <path d="m187 107 1 1z" fill="#b1b9ce" />
  <path d="m194 107 1 1z" fill="#a0a9c5" />
  <path d="m212 107 1 1z" fill="#bfc5d6" />
  <path d="m124 108 1 1z" fill="#8291b9" />
  <path d="m138 108 1 1z" fill="#9ca5bf" />
  <path d="m183 108 1 1z" fill="#a6aec5" />
  <path d="m201 108 1 1z" fill="#acb4cb" />
  <path d="m208 108 1 1z" fill="#8e9bbc" />
  <path d="m125 109 1 1z" fill="#c4cadb" />
  <path d="m134 109 1 1z" fill="#8f9bba" />
  <path d="m190 109 1 1z" fill="#b0b8ce" />
  <path d="m197 109 1 1z" fill="#a1aac5" />
  <path d="m215 109v4c.71-1.76.71-2.241 0-4z" fill="#e2e4e9" />
  <path d="m136 110 1 1z" fill="#cdd1de" />
  <path d="m141 110 1 1z" fill="#bac1d5" />
  <path d="m186 110 1 1z" fill="#a3acc5" />
  <path d="m204 110 1 1z" fill="#acb3c8" />
  <path d="m211 110 1 1z" fill="#8d9abc" />
  <path d="m142.33 111.67c-.055.055-.111 1.111.334.666.055-.055.111-1.111-.334-.666z" fill="#8a98bb" />
  <path d="m193 111 1 1z" fill="#b0b8cd" />
  <path d="m200 111 1 1z" fill="#a1abc6" />
  <path d="m90 112 1 1z" fill="#9ba6c3" />
  <path d="m130 112 1 1z" fill="#bdc4d7" />
  <path d="m189 112 1 1z" fill="#a1aac4" />
  <path d="m207 112 1 1z" fill="#c1c6d8" />
  <path d="m214 112 1 1z" fill="#929ebe" />
  <path d="m132 113 1 1z" fill="#909bb9" />
  <path d="m196 113 1 1z" fill="#b0b7cd" />
  <path d="m203 113 1 1z" fill="#929dba" />
  <path d="m91 114 1 1z" fill="#94a0c1" />
  <path d="m134 114 1 1z" fill="#8c98b8" />
  <path d="m192 114 1 1z" fill="#a0aac5" />
  <path d="m210 114 1 1z" fill="#c2c8d8" />
  <path d="m136 115 1 1z" fill="#8e99b8" />
  <path d="m196 116c1.769.779 3.036.912 5 1-1.902-1.156-2.722-1.156-5-1z" fill="#dce0eb" />
  <path d="m206 115 1 1z" fill="#949ebc" />
  <path d="m138 116 1 1z" fill="#adb5cb" />
  <path d="m195 116 1 1z" fill="#8a96b7" />
  <path d="m208 116c2.052.874 3.747.953 6 1-2.052-.874-3.747-.953-6-1z" fill="#dce0ea" />
  <path d="m93 117 1 1z" fill="#a8b0c8" />
  <path d="m140 117 1 1z" fill="#c1c7d7" />
  <path d="m145 119 1 1z" fill="#8c97b5" />
  <path d="m95 120 1 1z" fill="#8c9ac0" />
  <path d="m147 120 1 1z" fill="#c3c8d8" />
  <path d="m96 121 1 1z" fill="#a2abc6" />
  <path d="m150 121 1 1z" fill="#8995b4" />
  <path d="m97 122 1 1z" fill="#aeb5ca" />
  <path d="m152 122 1 1z" fill="#c0c5d6" />
  <path d="m98 123 1 1z" fill="#b2b9cc" />
  <path d="m99 124 1 1z" fill="#b0b7cb" />
  <path d="m157 124 1 1z" fill="#8895b6" />
  <path d="m100 125 1 1z" fill="#adb4cb" />
  <path d="m159 125 1 1z" fill="#a5aec8" />
  <path d="m101 126 1 1z" fill="#9ba6c5" />
  <path d="m161 126 1 1z" fill="#b6bdd2" />
  <path d="m163 127 1 1z" fill="#b8c0d5" />
  <path d="m165 128 1 1z" fill="#8c98b7" />
  <path d="m105 129 1 1z" fill="#acb3c9" />
  <path d="m108 131 1 1z" fill="#b6bcd0" />
  <path d="m170 131 1 1z" fill="#c3c9db" />
  <path d="m111 133 1 1z" fill="#9da8c6" />
  <path d="m173 133 1 1z" fill="#c9cedd" />
  <path d="m113 134 1 1z" fill="#b5bcd0" />
  <path d="m115 135 1 1z" fill="#bfc4d4" />
  <path d="m176 135 1 1z" fill="#96a0bb" />
  <path d="m117 136 1 1z" fill="#c0c5d5" />
  <path d="m119 137 1 1z" fill="#bec3d4" />
  <path d="m121 138 1 1z" fill="#b4bcd1" />
  <path d="m123 139 1 1z" fill="#8592b4" />
  <path d="m126 140 1 1z" fill="#bcc1d0" />
  <path d="m128 141 1 1z" fill="#8693b3" />
  <path d="m131 142 1 1z" fill="#b6bccf" />
  <path d="m136 144 1 1z" fill="#b9bfd4" />
  <path d="m185 144 1 1z" fill="#c5cbde" />
  <path d="m141 146 1 1z" fill="#bec4d3" />
  <path d="m143 147 1 1z" fill="#b9c0d4" />
  <path d="m187 147 1 1z" fill="#c6ccde" />
  <path d="m145 148 1 1z" fill="#8b96b5" />
  <path d="m147 149 1 1z" fill="#8592b3" />
  <path d="m149 150 1 1z" fill="#adb6cf" />
  <path d="m151 151 1 1z" fill="#bac0d4" />
  <path d="m154 153 1 1z" fill="#8693b4" />
  <path d="m190 153 1 1z" fill="#9ca5be" />
  <path d="m195.33 154.67c-.055.055-.111 1.111.334.666.055-.055.111-1.111-.334-.666z" fill="#818eb2" />
  <path d="m196 155c1.671 7.905 14.131 13.75 21 17-2.786-7.821-14.029-13.119-21-17z" fill="#fcfcfc" />
  <path d="m158 156 1 1z" fill="#c8cedd" />
  <path d="m191 156 1 1z" fill="#a1a9bf" />
  <path d="m198 156 1 1z" fill="#bdc4d9" />
  <path d="m196 158 1 1z" fill="#b6bcd0" />
  <path d="m201 158 1 1z" fill="#bcc3d8" />
  <path d="m161 160 1 1z" fill="#98a3c1" />
  <path d="m192 160 1 1z" fill="#9fa7be" />
  <path d="m204 160 1 1z" fill="#bbc3d7" />
  <path d="m162 162 1 1z" fill="#919ec0" />
  <path d="m207 162 1 1z" fill="#bac1d6" />
  <path d="m79 163v51c1.6611-3.959 1-8.74 1-13v-24c0-4.535.7687-9.785-1-14z" fill="#5371ac" />
  <path d="m105 163v7c1.059-2.534 1.059-4.466 0-7z" fill="#b9bfd1" />
  <path d="m203 163 1 1z" fill="#9ba4be" />
  <path d="m163.33 164.67c-.055.055-.111 1.111.334.666.055-.055.111-1.111-.334-.666z" fill="#8896bc" />
  <path d="m193 164v12c1.512-3.604 1.512-8.396 0-12z" fill="#7584a9" />
  <path d="m197.33 164.67c-.055.055-.111 1.111.334.666.055-.055.111-1.111-.334-.666z" fill="#818eb2" />
  <path d="m210 164 1 1z" fill="#bec4d9" />
  <path d="m198 165c2.219 7.545 14.938 14.323 22 17-2.301-7.483-15.196-13.781-22-17z" fill="#fafafa" />
  <path d="m206 165 1 1z" fill="#98a3bf" />
  <path d="m110 166c2.433 7.387 16.22 13.793 23 17-3.996-7.304-15.815-13-23-17z" fill="#fdfdfd" />
  <path d="m213 166 1 1z" fill="#bcc3d8" />
  <path d="m112 167 1 1z" fill="#c4c9d7" />
  <path d="m202 167 1 1z" fill="#8997b9" />
  <path d="m209 167 1 1z" fill="#95a0be" />
  <path d="m198 168 1 1z" fill="#8695ba" />
  <path d="m111 169 1 1z" fill="#9ca6c2" />
  <path d="m115 169 1 1z" fill="#c4c9d7" />
  <path d="m205 169 1 1z" fill="#8f9bba" />
  <path d="m212 169 1 1z" fill="#8d9abc" />
  <path d="m216 169 1 1z" fill="#cdd1de" />
  <path d="m114 171 1 1z" fill="#98a3c2" />
  <path d="m118 171 1 1z" fill="#c3c8d6" />
  <path d="m208 171 1 1z" fill="#919cba" />
  <path d="m217.33 171.67c-.055.055-.111 1.111.334.666.055-.055.111-1.111-.334-.666z" fill="#d5d9e8" />
  <path d="m106 173 1 1z" fill="#b9bfd1" />
  <path d="m117 173 1 1z" fill="#95a1c2" />
  <path d="m121 173 1 1z" fill="#c1c6d5" />
  <path d="m198 173c1.356 8.068 15.305 14.273 22 18-1.334-7.891-15.216-14.791-22-18z" fill="#fdfdfd" />
  <path d="m211 173 1 1z" fill="#949eba" />
  <path d="m163 174 1 1z" fill="#96a1bf" />
  <path d="m112.67 175.33c-.445.445.611.389.666.334.445-.445-.611-.389-.666-.334z" fill="#d2d5df" />
  <path d="m120 175 1 1z" fill="#919fc2" />
  <path d="m124 175 1 1z" fill="#bec4d3" />
  <path d="m197.33 175.67c-.055.055-.111 1.111.334.666.055-.055.111-1.111-.334-.666z" fill="#7084b2" />
  <path d="m214 175 1 1z" fill="#bcc3d8" />
  <path d="m113 176c2.95 3.97 6.115 6.115 11 7-3.207-3.072-6.848-5.426-11-7z" fill="#fdfdfd" />
  <path d="m122 176 1 1z" fill="#bdc2d2" />
  <path d="m116 177 1 1z" fill="#c7ccd9" />
  <path d="m127 177 1 1z" fill="#c1c6d5" />
  <path d="m162 177 1 1z" fill="#bac0d4" />
  <path d="m199 177 1 1z" fill="#cacfdd" />
  <path d="m217 177 1 1z" fill="#c4cadc" />
  <path d="m125 178 1 1z" fill="#b5bbcd" />
  <path d="m192.33 178.67c-.055.055-.111 1.111.334.666.055-.055.111-1.111-.334-.666z" fill="#d1d6e5" />
  <path d="m109 179 1 1z" fill="#c3c9da" />
  <path d="m119 179 1 1z" fill="#c8ccd9" />
  <path d="m130 179 1 1z" fill="#bfc4d4" />
  <path d="m161 179 1 1z" fill="#c7ccda" />
  <path d="m110 180 1 1z" fill="#9ea8c5" />
  <path d="m128 180 1 1z" fill="#b2b9cd" />
  <path d="m160 180 1 1z" fill="#a1abc9" />
  <path d="m220 180-1 3c1.766-.979 1.955-1.222 1-3z" fill="#6276a5" />
  <path d="m122 181 1 1z" fill="#c6cad6" />
  <path d="m197 181c2.258 7.675 15.644 14.82 23 17-3.765-7.368-15.644-13.52-23-17z" fill="#fafafa" />
  <path d="m198 181 1 1z" fill="#959fbc" />
  <path d="m205 181 1 1z" fill="#c8cedf" />
  <path d="m112 182 1 1z" fill="#b5bdd3" />
  <path d="m120 182 1 1z" fill="#95a1c2" />
  <path d="m131 182 1 1z" fill="#aeb5ca" />
  <path d="m196.33 182.67c-.055.055-.111 1.111.334.666.055-.055.111-1.111-.334-.666z" fill="#b2b9cd" />
  <path d="m212 182 1 1z" fill="#c6cbdc" />
  <path d="m113 183 1 1z" fill="#c9cdd9" />
  <path d="m123 183 1 1z" fill="#a4acc1" />
  <path d="m124.67 183.33c-.445.445.611.389.666.334.445-.445-.611-.389-.666-.334z" fill="#dde1ec" />
  <path d="m201 183 1 1z" fill="#97a1bc" />
  <path d="m208 183 1 1z" fill="#c1c7db" />
  <path d="m115 184 1 1z" fill="#a6b0cb" />
  <path d="m156 184 1 1z" fill="#9aa5c4" />
  <path d="m197 184 1 1z" fill="#b9c0d6" /> 
  <path d="m215 184 1 1z" fill="#c3c9db" />
  <path d="m204 185 1 1z" fill="#98a1bc" />
  <path d="m211 185 1 1z" fill="#98a2bc" />
  <path d="m119 186 1 1z" fill="#a7b0c9" />
  <path d="m153 186 1 1z" fill="#a5adc6" />
  <path d="m200 186 1 1z" fill="#919cb9" />
  <path d="m218 186 1 1z" fill="#c2c8da" />
  <path d="m190 187 1 1z" fill="#9ba5c2" />
  <path d="m207 187 1 1z" fill="#9da6be" />
  <path d="m214 187 1 1z" fill="#939dbb" />
  <path d="m125 188 1 1z" fill="#aeb6cb" />
  <path d="m148.67 188.33c-.445.445.611.389.666.334.445-.445-.611-.389-.666-.334z" fill="#e5e6eb" />
  <path d="m194 188v3c.696-1.554.696-1.446 0-3z" fill="#caced9" />
  <path d="m195 188c2.337 7.946 15.817 14.602 23 18-2.337-7.946-15.817-14.602-23-18z" fill="#fafafa" />
  <path d="m196 188 1 1z" fill="#99a3bf" />
  <path d="m203 188 1 1z" fill="#8b97b8" />
  <path d="m220 188v3c.696-1.554.696-1.446 0-3z" fill="#66769c" />
  <path d="m128 189c1.506.683 2.315.826 4 1-1.506-.683-2.315-.826-4-1z" fill="#c2c9dd" />
  <path d="m132 189c3.163 1.327 6.586 1 10 1-3.163-1.327-6.586-1-10-1z" fill="#5a71a5" />
  <path d="m142 189c1.248.685 1.548.749 3 1-1.248-.685-1.548-.749-3-1z" fill="#cbd0e0" />
  <path d="m210 189 1 1z" fill="#c3cadd" />
  <path d="m217 189 1 1z" fill="#919cbb" />
  <path d="m199 190 1 1z" fill="#9ca5bf" />
  <path d="m206 190 1 1z" fill="#8996b9" />
  <path d="m195 191 1 1z" fill="#8c98b7" />
  <path d="m213 191 1 1z" fill="#c4cadd" />
  <path d="m202 192 1 1z" fill="#9ca5bf" />
  <path d="m209 192 1 1z" fill="#8594b8" />
  <path d="m198 193 1 1z" fill="#8d98b7" />
  <path d="m211 193 1 1z" fill="#cacedc" />
  <path d="m216 193 1 1z" fill="#c5cbdd" />
  <path d="m192 194c-.986 1.479-1 1.203-1 3 7.59 5.12 15.424 11.749 24 15-2.338-7.949-16.024-14.116-23-18z" fill="#fafafa" />
  <path d="m205 194 1 1z" fill="#9da6bf" />
  <path d="m186 195 1 1z" fill="#96a1c0" />
  <path d="m194 195 1 1z" fill="#9aa4c0" />
  <path d="m201 195 1 1z" fill="#8f9ab8" />
  <path d="m219 195 1 1z" fill="#c7cddf" />
  <path d="m208 196 1 1z" fill="#9ea7bf" />
  <path d="m197 197 1 1z" fill="#9da7c1" />
  <path d="m204 197 1 1z" fill="#8c98b7" />
  <path d="m217 197 1 1z" fill="#c3c9db" />
  <path d="m184 198 1 1z" fill="#8393bc" />
  <path d="m193 198 1 1z" fill="#b3bbd2" />
  <path d="m211 198 1 1z" fill="#c3c9dc" />
  <path d="m219 198 1 1z" fill="#bbc2d7" />
  <path d="m183 199 1 1z" fill="#98a3c0" />
  <path d="m200 199 1 1z" fill="#9ea7c1" />
  <path d="m207 199 1 1z" fill="#8d98b7" />
  <path d="m182 200 1 1z" fill="#a6aec3" />
  <path d="m188 200-1 3c8.233 4.583 15.474 10.967 24 15l1-3c-7.709-5.2-15.593-11.023-24-15z" fill="#fbfbfc" />
  <path d="m189 200 1 1z" fill="#a4adc5" />
  <path d="m196 200 1 1z" fill="#b2bad2" />
  <path d="m214 200 1 1z" fill="#c5cbdd" />
  <path d="m104 201 1 1z" fill="#b4bdd6" />
  <path d="m181 201 1 1z" fill="#b0b6c9" />
  <path d="m187 201 1 1z" fill="#adb5cb" />
  <path d="m203 201 1 1z" fill="#a3acc3" />
  <path d="m210 201 1 1z" fill="#8b97b7" />
  <path d="m105 202 1 1z" fill="#c0c6d6" />
  <path d="m192 202 1 1z" fill="#a3acc4" />
  <path d="m199 202 1 1z" fill="#afb8d1" />
  <path d="m217 202 1 1z" fill="#c9cfe0" />
  <path d="m179 203 1 1z" fill="#a6adc3" />
  <path d="m188 203 1 1z" fill="#b9c0d4" />
  <path d="m206 203 1 1z" fill="#a3abc2" />
  <path d="m213 203 1 1z" fill="#8e99b8" />
  <path d="m104 204v3c.696-1.554.696-1.446 0-3z" fill="#b4bbd0" />
  <path d="m178 204 1 1z" fill="#9ca6c2" />
  <path d="m195 204 1 1z" fill="#a5adc4" />
  <path d="m202 204 1 1z" fill="#8995b5" />
  <path d="m177 205 1 1z" fill="#8896bc" />
  <path d="m184 205 1 1z" fill="#9ca7c5" />
  <path d="m191 205 1 1z" fill="#b8bfd3" />
  <path d="m216 205 1 1z" fill="#97a0bb" />
  <path d="m182 207c5.885 6.074 16.608 13.486 25 15-3.665-6.04-17.87-16.159-25-15z" fill="#fafafa" />
  <path d="m198 206 1 1z" fill="#a7afc4" />
  <path d="m205 206 1 1z" fill="#8995b6" />
  <path d="m110 207 1 1z" fill="#a1aac2" />
  <path d="m174 207 1 1z" fill="#abb2c7" />
  <path d="m187 207 1 1z" fill="#939ebe" />
  <path d="m194 207 1 1z" fill="#b6bdd3" />
  <path d="m208 208 1 1z" fill="#8995b7" />
  <path d="m171 209 1 1z" fill="#a1aac4" />
  <path d="m190 209 1 1z" fill="#99a4c1" />
  <path d="m197 209 1 1z" fill="#b5bdd3" />
  <path d="m215.33 209.67c-.055.055-.111 1.111.334.666.055-.055.111-1.111-.334-.666z" fill="#919bb8" />
  <path d="m178 210 1 1z" fill="#ccd0dd" />
  <path d="m179 210 1 1z" fill="#93a0c1" />
  <path d="m186 210 1 1z" fill="#c3c8d6" />
  <path d="m211 210 1 1z" fill="#8491b5" />
  <path d="m105 211c-5.7562 4.361-17.949 2-25 2 5.3113 2.565 14.098 1.055 20 1 2.529-.024 6.226.252 5-3z" fill="#d1d5df" />
  <path d="m116 211 1 1z" fill="#8d9abc" />
  <path d="m167 211 1 1z" fill="#c1c7d9" />
  <path d="m176.33 211.67c-.055.055-.111 1.111.334.666.055-.055.111-1.111-.334-.666z" fill="#7f8eb5" />
  <path d="m177 211c3.582 5.904 17.056 15.421 24 15-5.132-6.209-15.914-13.925-24-15z" fill="#fdfdfd" />
  <path d="m193 211 1 1z" fill="#a0a9c4" />
  <path d="m200 211 1 1z" fill="#adb6cf" />
  <path d="m165 212 1 1z" fill="#9ba5c1" />
  <path d="m182 212 1 1z" fill="#919ebf" />
  <path d="m189 212 1 1z" fill="#bec4d5" />
  <path d="m121 213 1 1z" fill="#909cbb" />
  <path d="m162 213 1 1z" fill="#c1c7d9" />
  <path d="m178 213 1 1z" fill="#bdc3d3" />
  <path d="m196 213 1 1z" fill="#a3acc5" />
  <path d="m203 213 1 1z" fill="#abb4cf" />
  <path d="m209 213 1 1z" fill="#8291b8" />
  <path d="m125.67 214.33c-.445.445.611.389.666.334.445-.445-.611-.389-.666-.334z" fill="#d8dbe3" />
  <path d="m159 214 1 1z" fill="#9ca5c0" />
  <path d="m171.67 214.33c-.445.445.611.389.666.334.445-.445-.611-.389-.666-.334z" fill="#e0e3ee" />
  <path d="m185 214 1 1z" fill="#94a0bf" />
  <path d="m192 214 1 1z" fill="#b7bed2" />
  <path d="m130 215c1.248.685 1.548.749 3 1-1.248-.685-1.548-.749-3-1z" fill="#d2d5e0" />
  <path d="m152 215c1.248.685 1.548.749 3 1-1.248-.685-1.548-.749-3-1z" fill="#d7dae2" />
  <path d="m169 215 1 1z" fill="#c1c9de" />
  <path d="m170 215c5.326 6.444 16.511 14.431 25 15-5.662-6.178-16.547-14.082-25-15z" fill="#fafafa" />
  <path d="m174 215 1 1z" fill="#9aa5c3" />
  <path d="m181 215 1 1z" fill="#bdc3d5" />
  <path d="m199 215 1 1z" fill="#a6aec5" />
  <path d="m206 215 1 1z" fill="#8794b5" />
  <path d="m111 216c2.154 7.325 13.814 13.614 21 15-3.664-6.697-14.113-12.029-21-15z" fill="#fcfcfc" />
  <path d="m112 216 1 1z" fill="#c9cedb" />
  <path d="m120 216 1 1z" fill="#8b98ba" />
  <path d="m134 216c1.769.779 3.036.912 5 1-1.769-.779-3.036-.912-5-1z" fill="#5d72a0" />
  <path d="m139 216c2.613 1.098 5.165.993 8 1-2.613-1.098-5.165-.993-8-1z" fill="#c0c6d9" />
  <path d="m170 216 1 1z" fill="#a0aac7" />
  <path d="m188 216 1 1z" fill="#98a2c0" />
  <path d="m195 216 1 1z" fill="#b3bbd2" />
  <path d="m211 216 1 1z" fill="#96a0bb" />
  <path d="m121.67 217.33c-.445.445.611.389.666.334.445-.445-.611-.389-.666-.334z" fill="#f4f5f9" />
  <path d="m123 217 1 1z" fill="#bac0d3" />
  <path d="m161 218c5.604 5.367 16.993 14.841 25 14-5.807-5.561-16.705-14.437-25-14z" fill="#fbfbfb" />
  <path d="m177 217 1 1z" fill="#9ba6c3" />
  <path d="m184 217 1 1z" fill="#b6bcd0" />
  <path d="m202 217 1 1z" fill="#a8afc5" />
  <path d="m209 217 1 1z" fill="#8a96b5" />
  <path d="m87 218 1 1z" fill="#c5cbdb" />
  <path d="m88 218c4.9545 5.406 13.002 10.77 20 13-4.661-5.479-13.142-10.815-20-13z" fill="#fcfcfc" />
  <path d="m90 218 1 1z" fill="#919cbb" />
  <path d="m97 218 1 1z" fill="#8694b8" />
  <path d="m98 218c5.445 5.941 14.801 12.557 23 13-5.419-5.913-14.847-12.458-23-13z" fill="#fbfbfc" />
  <path d="m110 218 1 1z" fill="#c1c6d3" />
  <path d="m122 218 1 1z" fill="#95a1c0" />
  <path d="m123 218c2.358 2.574 4.952 4.298 8 6-.782-4.726-3.506-5.591-8-6z" fill="#fdfdfd" />
  <path d="m127 218 1 1z" fill="#aeb6cd" />
  <path d="m166 218 1 1z" fill="#9aa6c5" />
  <path d="m173 218 1 1z" fill="#a4aeca" />
  <path d="m191 218 1 1z" fill="#a2abc5" />
  <path d="m198 218 1 1z" fill="#acb5d0" />
  <path d="m104 219 1 1z" fill="#c9cede" />
  <path d="m111 219 1 1z" fill="#8a98ba" />
  <path d="m162 219 1 1z" fill="#bec3d2" />
  <path d="m180 219 1 1z" fill="#9ca7c3" />
  <path d="m187 219 1 1z" fill="#b6bdd2" />
  <path d="m205 219 1 1z" fill="#aab1c6" />
  <path d="m90 220 1 1z" fill="#c9cedd" />
  <path d="m93 220 1 1z" fill="#9aa4be" />
  <path d="m100 220 1 1z" fill="#8997bb" />
  <path d="m125 220 1 1z" fill="#8493ba" />
  <path d="m131 220v4c.71-1.759.71-2.241 0-4z" fill="#a1acc9" />
  <path d="m139 222 5-1c-2.3-.916-3.377-.879-5 1z" fill="#6277a7" />
  <path d="m151 220 1 1z" fill="#c5cbdf" />
  <path d="m152 220c5.197 6.288 15.727 13.446 24 14-5.505-6.007-15.719-13.445-24-14z" fill="#fcfcfc" />
  <path d="m169 220 1 1z" fill="#a0abc7" />
  <path d="m176 220 1 1z" fill="#a0abc8" />
  <path d="m194 220 1 1z" fill="#aab2c9" />
  <path d="m114 221 1 1z" fill="#8291b8" />
  <path d="m120 221 1 1z" fill="#8392b7" />
  <path d="m140 221c5.676 5.436 13.982 11.566 22 12-5.676-5.436-13.982-11.566-22-12z" fill="#fafafb" />
  <path d="m145 221 1 1z" fill="#b8bfd3" />
  <path d="m152 221 1 1z" fill="#a5aec7" />
  <path d="m158 221 1 1z" fill="#a7b0cb" />
  <path d="m165 221 1 1z" fill="#b9bfd0" />
  <path d="m183 221 1 1z" fill="#a6afc8" />
  <path d="m190 221 1 1z" fill="#aeb7ce" />
  <path d="m203 221 1 1z" fill="#c8cddb" />
  <path d="m93 222 1 1z" fill="#c9cede" />
  <path d="m96 222 1 1z" fill="#c3cade" />
  <path d="m103 222 1 1z" fill="#8694b9" />
  <path d="m109 222 1 1z" fill="#8493b9" />
  <path d="m128 222 1 1z" fill="#8191ba" />
  <path d="m134 222 1 1z" fill="#8f9ec6" />
  <path d="m141 222 1 1z" fill="#a1aac4" />
  <path d="m172 222 1 1z" fill="#9fa9c6" />
  <path d="m179 222 1 1z" fill="#a3adc9" />
  <path d="m197 222 1 1z" fill="#acb3c9" />
  <path d="m205 222 1 1z" fill="#c6ccdf" />
  <path d="m123 223 1 1z" fill="#8391b6" />
  <path d="m148 223 1 1z" fill="#b9c0d3" />
  <path d="m155 223 1 1z" fill="#9ba6c3" />
  <path d="m161 223 1 1z" fill="#a8b1cb" />
  <path d="m168 223 1 1z" fill="#b9bfd0" />
  <path d="m186 223 1 1z" fill="#a9b1ca" />
  <path d="m193 223 1 1z" fill="#abb4ce" />
  <path d="m96 224 1 1z" fill="#c9cede" />
  <path d="m99 224 1 1z" fill="#c7cddf" />
  <path d="m112 224 1 1z" fill="#8795b9" />
  <path d="m137 224 1 1z" fill="#93a1c7" />
  <path d="m144 224 1 1z" fill="#9ca6c2" />
  <path d="m175 224 1 1z" fill="#9faac6" />
  <path d="m182 224 1 1z" fill="#a5afca" />
  <path d="m200 224 1 1z" fill="#afb5c8" />
  <path d="m126 225 1 1z" fill="#8391b6" />
  <path d="m138.67 225.33c-.445.445.611.389.666.334.445-.445-.611-.389-.666-.334z" fill="#7488b7" />
  <path d="m151 225 1 1z" fill="#bbc1d4" />
  <path d="m158 225 1 1z" fill="#99a4c3" />
  <path d="m164 225 1 1z" fill="#a8b1cb" />
  <path d="m171 225 1 1z" fill="#b8bed1" />
  <path d="m189 225 1 1z" fill="#aab2ca" />
  <path d="m196 225 1 1z" fill="#a8b1cd" />
  <path d="m201 225 1 1z" fill="#bcc3d8" />
  <path d="m99 226 1 1z" fill="#c8cede" />
  <path d="m102 226 1 1z" fill="#c9cfe0" />
  <path d="m109 226 1 1z" fill="#8291b7" />
  <path d="m115 226 1 1z" fill="#8996b8" />
  <path d="m140 226 1 1z" fill="#9ca9cb" />
  <path d="m147 226 1 1z" fill="#9aa4c2" />
  <path d="m178 226 1 1z" fill="#9ea9c5" />
  <path d="m185 226 1 1z" fill="#a7b0cb" />
  <path d="m129 227 1 1z" fill="#8290b5" />
  <path d="m141.67 227.33c-.445.445.611.389.666.334.445-.445-.611-.389-.666-.334z" fill="#7589b7" />
  <path d="m154 227 1 1z" fill="#bcc2d4" />
  <path d="m161 227 1 1z" fill="#96a2c3" />
  <path d="m167 227 1 1z" fill="#a9b2ca" />
  <path d="m174 227 1 1z" fill="#b8bed1" />
  <path d="m192 227 1 1z" fill="#aab2c9" />
  <path d="m102 228 1 1z" fill="#c9cedf" />
  <path d="m118 228 1 1z" fill="#8b98b8" />
  <path d="m125 228 1 1z" fill="#a6aec4" />
  <path d="m143 228 1 1z" fill="#8899c4" />
  <path d="m150 228 1 1z" fill="#96a2c1" />
  <path d="m181 228 1 1z" fill="#9ea8c4" />
  <path d="m188 228 1 1z" fill="#aab3cd" />
  <path d="m157 229 1 1z" fill="#c0c5d6" />
  <path d="m164 229 1 1z" fill="#909ec2" />
  <path d="m170 229 1 1z" fill="#acb4cb" />
  <path d="m177 229 1 1z" fill="#b6bcd0" />
  <path d="m105 230 1 1z" fill="#c6ccde" />
  <path d="m107 232h3l-1-2c-1.635.545-1.455.365-2 2z" fill="#cbcfdd" />
  <path d="m117 231c2.052.874 3.747.953 6 1-2.129-1.25-3.494-1.16-6-1z" fill="#c0c5d6" />
  <path d="m128 230 1 1z" fill="#a2aac3" />
  <path d="m132 230-2 1c1.482.791 2.796.87 2-1z" fill="#c1c6d6" />
  <path d="m153 230 1 1z" fill="#919ec0" />
  <path d="m166 230 1 1z" fill="#bcc1d1" />
  <path d="m184 230 1 1z" fill="#9fa9c5" />
  <path d="m191.67 230.33c-.445.445.611.389.666.334.445-.445-.611-.389-.666-.334z" fill="#909bb9" />
  <path d="m160 231 1 1z" fill="#bfc5d5" />
  <path d="m173 231 1 1z" fill="#b2b9cf" />
  <path d="m180 231 1 1z" fill="#b4bbd0" />
  <path d="m156 232 1 1z" fill="#8e9cc0" />
  <path d="m169 232 1 1z" fill="#babfd0" />
  <path d="m184.67 232.33c-.445.445.611.389.666.334.445-.445-.611-.389-.666-.334z" fill="#dde0e9" />
  <path d="m186 232 1 1z" fill="#99a4c1" />
  <path d="m159 233c1.248.685 1.548.749 3 1-1.248-.685-1.548-.749-3-1z" fill="#c8ccda" />
  <path d="m162 233 1 1z" fill="#fdfdfe" />
  <path d="m163 233 1 1z" fill="#c4c9da" />
  <path d="m176 233 1 1z" fill="#b6bdd3" />
</svg>
