<?xml version="1.0" encoding="utf-8"?>
<!DOCTYPE svg PUBLIC "-//W3C//DTD SVG 20010904//EN" "http://www.w3.org/TR/2001/REC-SVG-20010904/DTD/svg10.dtd">
<svg version="1.0" baseProfile="tiny-ps" xmlns="http://www.w3.org/2000/svg" viewBox="0 0 290 290" preserveAspectRatio="xMidYMid meet">
 <title>Souper.ml</title>
 <g fill="#416bb3">
  <path d="M0 145 l0 -145 145 0 145 0 0 145 0 145 -145 0 -145 0 0 -145z m155.7 66.6 c27.3 -7.3 41.6 -34.4 30.5 -57.8 -5.7 -11.9 -15.9 -19.4 -40.6 -29.9 -27.8 -11.9 -33.6 -17.5 -33.6 -32.4 0 -8.9 2.9 -14.2 10 -17.7 4.8 -2.5 6.4 -2.8 15.5 -2.8 12.4 0 18.9 1.7 23.3 6.3 3.6 3.7 5.2 8.1 5.2 14.4 l0 4.3 9.5 0 9.5 0 0 -21 0 -21 -9 0 -9 0 0 4.5 c0 4.3 -0.1 4.5 -3 4.5 -2.2 0 -4.1 -1 -6.5 -3.4 -3.6 -3.6 -12.1 -7.3 -19.1 -8.3 -5.1 -0.7 -16.6 1.9 -24.1 5.4 -11.5 5.3 -21.2 17.5 -23.8 29.8 -1.6 7.6 -0.9 13.6 2.4 21.1 6.3 14.1 16.7 22.1 42.6 32.4 14.9 6 20.6 9 25.4 13.4 4.6 4.3 6.1 8.3 6.1 16.6 0 12.2 -5 18.5 -17.1 21.6 -7.7 2 -23.8 1.4 -30.9 -1.1 -10.4 -3.7 -16 -10.6 -16 -19.8 l0 -4.7 -10 0 -10 0 0 22.5 0 22.5 9.4 0 9.4 0 -0.5 -6 -0.6 -6 3.2 0 c2.3 0 4.6 1.2 7.9 3.9 5.7 4.7 9.5 6.7 16.4 8.5 6.9 1.9 20.9 2 27.5 0.2z"/>
 </g>
 <g fill="#fafafa">
  <path d="M149.4 227.5 c-8.3 -5.4 -9.4 -6.5 -7.1 -6.5 1.7 0 6.3 2.4 12.5 6.5 7.8 5.2 9.2 6.5 7.1 6.5 -1.6 0 -6.7 -2.7 -12.5 -6.5z"/>
  <path d="M161 227 c-9.2 -6.1 -10.1 -7 -7.5 -7 2 0 6.3 2.2 13.5 7 9.2 6.1 10.1 7 7.5 7 -2 0 -6.3 -2.2 -13.5 -7z"/>
  <path d="M171.7 225.8 c-8.4 -5.6 -10.5 -7.4 -9.1 -7.9 1.3 -0.4 5.2 1.6 12.6 6.5 5.9 3.9 10.8 7.4 10.8 7.9 0 2.1 -4.6 0 -14.3 -6.5z"/>
  <path d="M97 225 c-5.8 -3.8 -9.8 -7 -9 -7 0.9 0 5.8 2.7 11 6.1 10.8 6.9 12 7.9 10 7.9 -0.8 0 -6.2 -3.2 -12 -7z"/>
  <path d="M107.6 225.2 c-7.9 -5.3 -9.5 -6.8 -7.7 -7 1.5 -0.2 5.7 1.9 11.9 5.9 12.2 7.9 12.2 7.9 8.7 7.8 -2 0 -6.5 -2.4 -12.9 -6.7z"/>
  <path d="M120.3 225.2 c-7.5 -4.9 -10 -7.1 -9.4 -8.1 0.7 -1 3.3 0.4 11.5 5.8 9.8 6.6 12.5 9.2 9.4 9 -0.7 0 -5.9 -3 -11.5 -6.7z"/>
  <path d="M180.2 223 c-15.1 -10.5 -12.4 -11.7 3.3 -1.5 6.3 4.1 11.5 7.7 11.5 7.9 0 0.2 -0.8 0.6 -1.8 0.8 -1 0.3 -6.1 -2.5 -13 -7.2z"/>
  <path d="M188 220 c-5.8 -3.8 -10.5 -7.6 -10.5 -8.2 0 -2.1 1.7 -1.3 13.4 6.4 7.4 4.8 10.7 7.5 9.8 8 -1.8 1.1 -1.4 1.3 -12.7 -6.2z"/>
  <path d="M125.5 220.3 c-4 -2.8 -4.5 -3.4 -2.3 -2.9 5.3 1.2 7.5 2.5 8.1 4.5 0.7 2.8 0.1 2.6 -5.8 -1.6z"/>
  <path d="M194.4 215.9 c-12.9 -8.4 -13.2 -8.7 -11.2 -9.4 1.5 -0.6 22.9 12.6 23.6 14.5 1 2.7 -2.8 1.1 -12.4 -5.1z"/>
  <path d="M198.8 210.4 c-8.3 -5.3 -11.5 -8 -11.1 -9 0.5 -1.3 0.8 -1.3 2.7 -0.1 1.1 0.8 6.5 4.2 11.8 7.6 6.7 4.3 9.5 6.7 9.1 7.7 -0.3 0.8 -0.6 1.4 -0.7 1.4 -0.1 0 -5.4 -3.4 -11.8 -7.6z"/>
  <path d="M133.4 215.9 c-9.7 -1.1 -17.5 -4.3 -24 -9.5 l-5.4 -4.4 0.6 4.2 c1.3 7.9 2.2 7.3 -11.8 7.6 l-12.8 0.3 0 -25.6 0 -25.5 13 0 13 0 0 4.7 c0 12.5 9.7 20.3 27.3 21.9 8.7 0.8 18.4 -1.4 23.4 -5.2 6.5 -4.9 9.1 -14.4 5.9 -21.7 -2.9 -6.9 -10.3 -11.7 -30.1 -19.7 -21.1 -8.4 -31.6 -15.2 -37.9 -24.3 -13 -18.9 -10.5 -42.5 6.2 -57.7 16.3 -15.1 46.9 -17.2 59.9 -4.2 l3.6 3.5 -0.7 -4.6 -0.7 -4.7 12.5 0 12.6 0 0 24 0 24 -12.5 0 -12.5 0 0 -4.3 c0 -13.8 -8.5 -20.7 -25.4 -20.7 -16 0 -25.7 10.7 -21.6 23.6 2.6 8.2 10.6 13.9 32.6 23.3 24.6 10.5 34.8 18 40.6 29.9 2.8 5.9 3.3 7.9 3.6 16.9 0.3 8.3 0 11.5 -1.7 17.1 -6.7 22.1 -29.8 34.5 -57.7 31.1z"/>
  <path d="M202.2 204.4 c-6.2 -4.1 -11.2 -7.9 -11 -8.5 0.6 -1.7 1.7 -1.1 13.4 6.4 6.5 4.2 10.9 7.7 10.7 8.5 -0.3 0.6 -0.8 1.2 -1.1 1.1 -0.4 0 -5.8 -3.4 -12 -7.5z"/>
  <path d="M206 198.4 c-13.7 -9.1 -12.6 -8.2 -11.4 -9.4 0.5 -0.5 4.7 1.6 10.9 5.6 5.5 3.6 10.6 6.9 11.4 7.3 0.7 0.4 1.1 1.5 1 2.5 -0.3 1.3 -2.8 0 -11.9 -6z"/>
  <path d="M208 191.4 c-6.3 -4.2 -11.4 -7.8 -11.3 -8 0.1 -0.3 0.3 -0.9 0.5 -1.4 0.2 -0.5 5.3 2.3 11.3 6.2 13 8.4 11.8 7.3 11.3 9.2 -0.2 1.2 -3.2 -0.3 -11.8 -6z"/>
  <path d="M208.8 183.8 c-7.8 -5.1 -10.8 -7.6 -10.8 -9 0 -2 0.1 -2 2.8 -0.2 15.5 10.1 19.2 12.9 19.2 14.6 0 1 -0.1 1.8 -0.2 1.7 -0.2 0 -5.1 -3.2 -11 -7.1z"/>
  <path d="M120.5 182.1 c-3.6 -1.7 -9.9 -7.1 -8.1 -7.1 0.3 0 3.7 2 7.4 4.5 7.1 4.8 7.3 5.7 0.7 2.6z"/>
  <path d="M122 176.4 c-5.2 -3.6 -10.1 -6.9 -10.9 -7.3 -0.7 -0.5 -1.2 -1.3 -1 -2 0.4 -1.2 22.9 13.4 22.9 14.9 0 1.7 -1.2 1.1 -11 -5.6z"/>
  <path d="M208.3 174.9 c-5.7 -3.8 -10.3 -7.6 -10.3 -8.5 0 -1 0.5 -1.2 1.3 -0.8 10.8 6.7 20.7 13.8 20.7 14.9 0 0.8 -0.3 1.5 -0.7 1.4 -0.5 0 -5.4 -3.2 -11 -7z"/>
  <path d="M207 165.8 c-6.9 -4.5 -10.6 -7.5 -10.8 -8.9 -0.4 -2.5 -1 -2.7 11 5.3 7.4 4.9 11.9 9.2 10.6 10.2 -0.2 0.2 -5 -2.8 -10.8 -6.6z"/>
  <path d="M186.2 110.2 c-8.7 -5.6 -9.9 -6.7 -7.8 -7 1.7 -0.2 5.3 1.6 11.8 5.9 11.5 7.6 11.8 7.9 8.8 7.9 -1.4 0 -7.1 -3.1 -12.8 -6.8z"/>
  <path d="M198.6 110.2 c-7.5 -5.1 -9.4 -6.8 -7.8 -7 1.2 -0.2 6.3 2.4 12.9 6.7 9.2 6 10.4 7.1 7.8 7 -2 0 -6.3 -2.3 -12.9 -6.7z"/>
  <path d="M132.3 108 c-4.5 -2.8 -9.2 -6.4 -10.4 -8.2 -1.2 -1.7 -1.8 -2.9 -1.2 -2.7 3.3 1.3 21.2 13.6 21.2 14.7 0.1 1.9 -1 1.5 -9.6 -3.8z"/>
  <path d="M204.2 105.5 c-6.2 -4.2 -11.2 -8.2 -11.2 -9.1 0 -1.2 0.7 -1.1 3.8 0.8 13.6 8.4 19.2 12.5 19.2 14.1 0 0.9 -0.1 1.7 -0.3 1.7 -0.1 0 -5.3 -3.4 -11.5 -7.5z"/>
  <path d="M131.5 99.4 c-7.1 -4.8 -11.1 -8.1 -11.3 -9.5 -0.3 -1.6 1.9 -0.5 11.2 5.7 7.8 5.2 11.6 8.3 11.6 9.6 0 1 -0.1 1.8 -0.2 1.7 -0.2 0 -5.2 -3.4 -11.3 -7.5z"/>
  <path d="M204.5 97.4 c-7 -4.7 -11.1 -8.1 -11.3 -9.4 -0.3 -1.6 2 -0.5 11.2 5.6 7.8 5.2 11.6 8.3 11.6 9.6 0 1 -0.1 1.8 -0.2 1.7 -0.2 0 -5.2 -3.4 -11.3 -7.5z"/>
  <path d="M133.7 92.6 c-12.7 -8.6 -12.4 -8.4 -10.4 -9.1 1.7 -0.7 23.8 13.4 23.4 14.9 -0.7 2.1 -2.6 1.2 -13 -5.8z"/>
  <path d="M203.8 88.8 c-7.1 -4.7 -10.8 -7.8 -10.8 -9 0 -1.4 2.6 -0.1 11.5 5.8 6.3 4.3 11.5 8.3 11.5 9.1 0 0.7 -0.3 1.3 -0.7 1.3 -0.5 0 -5.6 -3.3 -11.5 -7.2z"/>
  <path d="M139.1 87.6 c-9.3 -6.1 -11 -7.5 -9.3 -8 2.8 -0.9 25.2 13.8 22.7 14.8 -0.9 0.3 -1.7 0.6 -1.8 0.6 -0.1 0 -5.3 -3.4 -11.6 -7.4z"/>
  <path d="M148.5 85.4 c-11.9 -7.8 -12 -7.9 -7.5 -7 4.6 0.9 16.6 8.9 17.3 11.5 0.3 1.2 0.4 2.1 0.4 2.1 -0.1 0 -4.7 -3 -10.2 -6.6z"/>
  <path d="M204.3 80.5 c-6.2 -4.1 -11.3 -8.2 -11.3 -9 0 -1.3 0.4 -1.4 2.3 -0.4 1.7 1 19.1 12.3 20.5 13.5 0.2 0.1 0.2 1 0 1.8 -0.2 1.2 -3 -0.2 -11.5 -5.9z"/>
  <path d="M203.8 71.9 c-7.3 -4.9 -10.8 -7.8 -10.8 -9 0 -1.5 2.4 -0.3 11.5 5.7 6.3 4.3 11.5 8.3 11.5 9.1 0 0.7 -0.3 1.3 -0.7 1.3 -0.5 0 -5.6 -3.2 -11.5 -7.1z"/>
  <path d="M204.2 64.5 c-6.1 -4.1 -11.2 -8.2 -11.2 -9 0 -1 4.1 1.2 11.5 6.1 6.3 4.3 11.5 8.3 11.5 9.1 0 0.7 -0.1 1.3 -0.3 1.3 -0.1 0 -5.3 -3.4 -11.5 -7.5z"/>
 </g>
</svg>
