<?xml version="1.0" encoding="utf-8" standalone="yes"?>
<svg width="290" height="290" version="1.2" baseProfile="tiny-ps" xmlns="http://www.w3.org/2000/svg">
  <title>souper.ml</title>
  <path d="M0 0L0 290L290 290L290 0L0 0z" fill="#436db5" />
  <path d="M128.667 48.3333C128.222 48.7778 129.278 48.7222 129.333 48.6667C129.778 48.2222 128.722 48.2778 128.667 48.3333z" fill="#b6bdd2" />
  <path d="M105 163L80 163L80 213L105 213L104 201C123.407 224.337 167.72 220.567 185.485 196.996C194.188 185.449 195.16 167.366 190.644 154C183.531 132.944 159.426 125.592 141 117.576C131.566 113.471 117.913 107.119 115.394 96C111.382 78.2828 132.386 71.608 146 74.5177C158.909 77.2768 162.999 87.0678 163 99L188 99L188 51L163 51L164 60C148.154 41.4325 115.172 46.0032 99.0903 62.0903C87.0245 74.1602 83.2983 94.0755 89.4676 110C97.4272 130.546 120.401 138.008 139 145.603C148.584 149.517 162.856 156.169 163.891 168C164.985 180.501 152.436 189.316 141 189.957C123.046 190.963 105.414 182.943 105 163z" fill="#fefefe" />
  <path d="M141 48C142.248 48.6848 142.548 48.7488 144 49C142.752 48.3152 142.452 48.2512 141 48M122.667 49.3333C122.222 49.7778 123.278 49.7222 123.333 49.6667C123.778 49.2222 122.722 49.2778 122.667 49.3333M118.667 50.3333C118.222 50.7779 119.278 50.7222 119.333 50.6667C119.778 50.2222 118.722 50.2778 118.667 50.3333M150 50L151 51L150 50M115 51L116 52L115 51M153 51L154 52L153 51M162 51L163 52L162 51M113 52L114 53L113 52M155 52L156 53L155 52z" fill="#b6bdd2" />
  <path d="M193 54C195.328 61.9155 207.894 67.6785 215 71C212.576 63.6406 199.551 57.647 193 54z" fill="#fefefe" />
  <path d="M107 55L108 56L107 55M163.333 55.6667C163.278 55.7222 163.222 56.7778 163.667 56.3333C163.722 56.2778 163.778 55.2223 163.333 55.6667M195 55L196 56L195 55M104 57L105 58L104 57M193 57L194 58L193 57M198 57L199 58L198 57M103 58L104 59L103 58M162 58L163 59L162 58M163 59L164 60L163 59M196 59L197 60L196 59M201 59L202 60L201 59M193 61L194 62L193 61M199 61L200 62L199 61M204 61L205 62L204 61z" fill="#b6bdd2" />
  <path d="M193 62C195.363 69.6846 208.269 75.2525 215 79C213.742 71.5625 199.64 64.5168 193 62z" fill="#fefefe" />
  <path d="M196 63L197 64L196 63M202 63L203 64L202 63M207 63L208 64L207 63M199 65L200 66L199 65M205 65L206 66L205 65M210 65L211 66L210 65M95 66L96 67L95 66M195 66L196 67L195 66M202 67L203 68L202 67M213 67L214 68L213 67M198 68L199 69L198 68M210 68L211 69L210 68M205 69L206 70L205 69M215 69L214 72C215.766 71.0214 215.955 70.7782 215 69z" fill="#b6bdd2" />
  <path d="M193 70C195.219 77.5448 207.938 84.3232 215 87C212.778 79.4901 199.814 73.2234 193 70z" fill="#fefefe" />
  <path d="M194 70L195 71L194 70M201 70L202 71L201 70M213 70L214 71L213 70M208 71L209 72L208 71M91 72L92 73L91 72M197 72L198 73L197 72M204 72L205 73L204 72M210 72L211 73L210 72M193 73L194 74L193 73M206 73L207 74L206 73M90 74L91 75L90 74M130.667 74.3333C130.222 74.7778 131.278 74.7222 131.333 74.6667C131.778 74.2222 130.722 74.2777 130.667 74.3333M144 74C145.248 74.6848 145.548 74.7488 147 75C145.752 74.3152 145.452 74.2512 144 74M200 74L201 75L200 74M213 74L214 75L213 74M126 75L127 76L126 75M149 75L150 76L149 75M196 75L197 76L196 75M209 75L210 76L209 75M89 76L90 77L89 76M124 76L125 77L124 76M152 76L153 77L152 76M203 76L204 77L203 76M215 76L215 79C215.696 77.4463 215.696 77.5537 215 76M154 77L155 78L154 77M199 77L200 78L199 77M212 77L213 78L212 77M121 78L122 79L121 78z" fill="#b6bdd2" />
  <path d="M138 78C143.385 83.1571 151.026 88.3565 158 91C155.729 83.6147 145.168 78.9858 138 78z" fill="#fefefe" />
  <path d="M141 78C142.248 78.6848 142.548 78.7488 144 79C142.752 78.3152 142.452 78.2512 141 78z" fill="#b6bdd2" />
  <path d="M193 78C194.348 85.972 208.374 92.3109 215 96C213.652 88.028 199.626 81.6892 193 78z" fill="#fefefe" />
  <path d="M206 78L207 79L206 78M88 79L89 80L88 79M128 81L131 80C129.234 79.599 129.443 79.7108 128 81z" fill="#b6bdd2" />
  <path d="M129 81C135.398 85.3163 145.059 94.8116 153 94C148.867 89.4899 143.123 86.3238 138 83.0046C134.914 81.0052 132.418 79.192 129 81z" fill="#fefefe" />
  <path d="M132 79L133 80L132 79M139 79L140 80L139 79M195 79L196 80L195 79M202 79L203 80L202 79M119 80L120 81L119 80M146 80L147 81L146 80M209 80L210 81L209 80M118 81L119 82L118 81M135 81L136 82L135 81M142 81L143 82L142 81M198 81L199 82L198 81M205 81L206 82L205 81M211 81L212 82L211 81M123 82C124.139 83.0154 124.612 83.3087 126 84C124.777 82.8048 124.58 82.6836 123 82M131 82L132 83L131 82M149 82L150 83L149 82M194 82L195 83L194 82z" fill="#b6bdd2" />
  <path d="M122 84C127.073 89.4946 139.468 98.8263 147 99C143.305 92.9091 129.179 83.2663 122 84z" fill="#fefefe" />
  <path d="M138 83L139 84L138 83M145 83L146 84L145 83M160 83L161 84L160 83M201 83L202 84L201 83M208 83L209 84L208 83M214 83L215 84L214 83M134 84L135 85L134 84M152 84L153 85L152 84M197 84L198 85L197 84M215 84L214 88C215.656 86.5957 215.751 86.0465 215 84M128 85L129 86L128 85M141 85L142 86L141 85M148 85L149 86L148 85M161 85L162 86L161 85M204 85L205 86L204 85M211 85L212 86L211 85M124 86L125 87L124 86M137 86L138 87L137 86M155 86L156 87L155 86M193 86L194 87L193 86M200 86L201 87L200 86M115.333 87.6667C115.278 87.7222 115.222 88.7778 115.667 88.3333C115.722 88.2777 115.778 87.2223 115.333 87.6667M131 87L132 88L131 87M144 87L145 88L144 87M151 87L152 88L151 87z" fill="#b6bdd2" />
  <path d="M193 87C195.409 94.8325 209.095 101.156 216 105C214.682 97.2035 199.945 89.6325 193 87z" fill="#fefefe" />
  <path d="M207 87L208 88L207 87M86 88L86 98C87.3457 94.793 87.3457 91.207 86 88z" fill="#b6bdd2" />
  <path d="M120 88C121.318 95.7965 136.055 103.368 143 106C140.591 98.1675 126.905 91.8442 120 88z" fill="#fefefe" />
  <path d="M127 88L128 89L127 88M133 88L134 89L133 88M140 88L141 89L140 88M162 88L162 91C162.696 89.4463 162.696 89.5537 162 88M196 88L197 89L196 88M203 88L204 89L203 88M122 89L123 90L122 89M129 89L130 90L129 89M147 89L148 90L147 89M154 89L155 90L154 89M210 89L211 90L210 89M136 90L137 91L136 90M143 90L144 91L143 90M158.333 90.6667C158.278 90.7222 158.222 91.7778 158.667 91.3333C158.722 91.2777 158.778 90.2223 158.333 90.6667M199 90L200 91L199 90M206 90L207 91L206 90M125 91L126 92L125 91M132 91L133 92L132 91M150 91L151 92L150 91M195 91L196 92L195 91M213 91L214 92L213 91M121 92L122 93L121 92M139 92L140 93L139 92M146 92L147 93L146 92M202 92L203 93L202 92M209 92L210 93L209 92M128 93L129 94L128 93M135 93L136 94L135 93M153 93L154 94L153 93M198 93L199 94L198 93M215 93L215 96C215.696 94.4463 215.696 94.5537 215 93M124 94L125 95L124 94M142 94L143 95L142 94M149 94L150 95L149 94M205 94L206 95L205 94M212 94L213 95L212 94M115 95L115 98C115.696 96.4463 115.696 96.5537 115 95M131 95L132 96L131 95M138 95L139 96L138 95z" fill="#b6bdd2" />
  <path d="M193 95C195.337 102.946 208.817 109.602 216 113C214.679 105.299 199.668 98.1543 193 95z" fill="#fefefe" />
  <path d="M194 95L195 96L194 95M201 95L202 96L201 95M127 96L128 97L127 96M145 96L146 97L145 96M208 96L209 97L208 96M120.667 97.3333C120.222 97.7778 121.278 97.7222 121.333 97.6667C121.778 97.2222 120.722 97.2778 120.667 97.3333M134 97L135 98L134 97M141 97L142 98L141 97M197 97L198 98L197 97M204 97L205 98L204 97z" fill="#b6bdd2" />
  <path d="M121 98C125.355 105.19 134.181 110.289 142 113C138.503 106.157 128.074 100.59 121 98z" fill="#fefefe" />
  <path d="M130 98L131 99L130 98M193 98L194 99L193 98M211 98L212 99L211 98M116 99L117 100L116 99M121 99L122 100L121 99M124 99L125 100L124 99M137 99L138 100L137 99M144 99L145 100L144 99M200 99L201 100L200 99M207 99L208 100L207 99M122 100L123 101L122 100M126 100L127 101L126 100M133 100L134 101L133 100M196 100L197 101L196 100M214 100L215 101L214 100M117 101L118 102L117 101M140 101L141 102L140 101M203 101L204 102L203 101M210 101L211 102L210 101M87.3333 102.667C87.2778 102.722 87.2222 103.778 87.6667 103.333C87.7223 103.278 87.7777 102.222 87.3333 102.667M129 102L130 103L129 102M136 102L137 103L136 102M199 102L200 103L199 102M125 103L126 104L125 103M143.333 103.667C143.278 103.722 143.222 104.778 143.667 104.333C143.722 104.278 143.778 103.222 143.333 103.667z" fill="#b6bdd2" />
  <path d="M176 103C181.854 109.043 192.451 116.538 201 117C195.146 110.957 184.549 103.462 176 103z" fill="#fefefe" />
  <path d="M181 103L182 104L181 103M188 103L189 104L188 103z" fill="#b6bdd2" />
  <path d="M189 103C194.505 109.007 204.719 116.445 213 117C207.495 110.993 197.281 103.555 189 103z" fill="#fefefe" />
  <path d="M206 103L207 104L206 103M213 103L214 104L213 103M132 104L133 105L132 104M139 104L140 105L139 104M195 104L196 105L195 104M202 104L203 105L202 104M120 105L121 106L120 105M128 105L129 106L128 105M184 105L185 106L184 105M191 105L192 106L191 105M209 105L210 106L209 105M135 106L136 107L135 106M142 106L143 107L142 106M180 106L181 107L180 106M198 106L199 107L198 106M205 106L206 107L205 106M88 107L89 108L88 107M131 107L132 108L131 107M187 107L188 108L187 107M194 107L195 108L194 107M212 107L213 108L212 107M124 108L125 109L124 108M138 108L139 109L138 108M183 108L184 109L183 108M201 108L202 109L201 108M208 108L209 109L208 108M125 109L126 110L125 109M134 109L135 110L134 109M190 109L191 110L190 109M197 109L198 110L197 109M127 110L128 111L127 110M141 110L142 111L141 110M186 110L187 111L186 110M204 110L205 111L204 110M211 110L212 111L211 110M142.333 111.667C142.278 111.722 142.222 112.778 142.667 112.333C142.722 112.278 142.778 111.222 142.333 111.667M193 111L194 112L193 111M200 111L201 112L200 111M90 112L91 113L90 112M130 112L131 113L130 112M140 112L141 113L140 112M189 112L190 113L189 112M207 112L208 113L207 112M214 112L215 113L214 112M132 113L133 114L132 113M196 113L197 114L196 113M203 113L204 114L203 113M91 114L92 115L91 114M134 114L135 115L134 114M192 114L193 115L192 114M210 114L211 115L210 114M136 115L137 116L136 115M206 115L207 116L206 115M138 116L139 117L138 116M195 116L196 117L195 116M213 116L214 117L213 116M93 117L94 118L93 117M140 117L141 118L140 117M145 119L146 120L145 119M95 120L96 121L95 120M147 120L148 121L147 120M96 121L97 122L96 121M150 121L151 122L150 121M97 122L98 123L97 122M152 122L153 123L152 122M98 123L99 124L98 123M99 124L100 125L99 124M157 124L158 125L157 124M100 125L101 126L100 125M159 125L160 126L159 125M101 126L102 127L101 126M161 126L162 127L161 126M163 127L164 128L163 127M165 128L166 129L165 128M105 129L106 130L105 129M108 131L109 132L108 131M170 131L171 132L170 131M111 133L112 134L111 133M113 134L114 135L113 134M115 135L116 136L115 135M176 135L177 136L176 135M117 136L118 137L117 136M119 137L120 138L119 137M121 138L122 139L121 138M123 139L124 140L123 139M126 140L127 141L126 140M128 141L129 142L128 141M131 142L132 143L131 142M136 144L137 145L136 144M141 146L142 147L141 146M143 147L144 148L143 147M145 148L146 149L145 148M147 149L148 150L147 149M149 150L150 151L149 150M151 151L152 152L151 151M154 153L155 154L154 153M190 153L191 154L190 153z" fill="#b6bdd2" />
  <path d="M196 155C197.671 162.905 210.131 168.75 217 172C214.732 164.289 202.72 158.741 196 155z" fill="#fefefe" />
  <path d="M191 156L192 157L191 156M198 156L199 157L198 156M196 158L197 159L196 158M201 158L202 159L201 158M161 160L162 161L161 160M192 160L193 161L192 160M204 160L205 161L204 160M162 162L163 163L162 162M207 162L208 163L207 162M105 163L105 170C106.059 167.466 106.059 165.534 105 163M203 163L204 164L203 163M163.333 164.667C163.278 164.722 163.222 165.778 163.667 165.333C163.722 165.278 163.778 164.222 163.333 164.667M210 164L211 165L210 164z" fill="#b6bdd2" />
  <path d="M198 165C200.219 172.545 212.938 179.323 220 182C217.699 174.517 204.804 168.219 198 165z" fill="#fefefe" />
  <path d="M206 165L207 166L206 165z" fill="#b6bdd2" />
  <path d="M110 166C112.433 173.387 126.22 179.793 133 183C129.004 175.696 117.185 170 110 166z" fill="#fefefe" />
  <path d="M213 166L214 167L213 166M112 167L113 168L112 167M202 167L203 168L202 167M209 167L210 168L209 167M198 168L199 169L198 168M111 169L112 170L111 169M115 169L116 170L115 169M205 169L206 170L205 169M212 169L213 170L212 169M114 171L115 172L114 171M118 171L119 172L118 171M208 171L209 172L208 171M217.333 171.667C217.278 171.722 217.222 172.778 217.667 172.333C217.722 172.278 217.778 171.222 217.333 171.667M106 173L107 174L106 173M117 173L118 174L117 173M121 173L122 174L121 173z" fill="#b6bdd2" />
  <path d="M198 173C199.33 181.227 213.2 187.214 220 191C218.645 182.986 204.855 176.243 198 173z" fill="#fefefe" />
  <path d="M211 173L212 174L211 173M163 174L164 175L163 174M112 175C112.545 176.635 112.365 176.455 114 177L114 175L112 175M120 175L121 176L120 175M124 175L125 176L124 175M214 175L215 176L214 175z" fill="#b6bdd2" />
  <path d="M114 176C116.461 181.002 120.758 182.754 126 184C122.407 180.801 118.346 178.065 114 176z" fill="#fefefe" />
  <path d="M122 176L123 177L122 176M127 177L128 178L127 177M162 177L163 178L162 177M217 177L218 178L217 177M125 178L126 179L125 178M192.333 178.667C192.278 178.722 192.222 179.778 192.667 179.333C192.722 179.278 192.778 178.222 192.333 178.667M109 179L110 180L109 179M130 179L131 180L130 179M110 180L111 181L110 180M128 180L129 181L128 180M160 180L161 181L160 180M122 181L123 182L122 181z" fill="#b6bdd2" />
  <path d="M197 181C199.282 188.76 212.567 195.813 220 198C218.676 193.991 215.44 192.529 212 190.308C207.052 187.114 202.333 183.523 197 181z" fill="#fefefe" />
  <path d="M198 181L199 182L198 181M112 182L113 183L112 182M120 182L121 183L120 182M131 182L132 183L131 182M196.333 182.667C196.278 182.722 196.222 183.778 196.667 183.333C196.722 183.278 196.778 182.222 196.333 182.667M123 183L124 184L123 183M201 183L202 184L201 183M208 183L209 184L208 183M115 184L116 185L115 184M156 184L157 185L156 184M197 184L198 185L197 184M215 184L216 185L215 184M204 185L205 186L204 185M211 185L212 186L211 185M119 186L120 187L119 186M153 186L154 187L153 186M200 186L201 187L200 186M218 186L219 187L218 186M190 187L191 188L190 187M207 187L208 188L207 187M214 187L215 188L214 187M125 188L126 189L125 188M194 188L195 192C195.197 190.189 194.954 189.581 194 188z" fill="#b6bdd2" />
  <path d="M195 188C197.337 195.946 210.817 202.602 218 206C216.686 198.231 201.727 191.182 195 188z" fill="#fefefe" />
  <path d="M196 188L197 189L196 188M203 188L204 189L203 188M128 189C129.506 189.683 130.315 189.826 132 190C130.494 189.317 129.685 189.174 128 189M142 189C143.506 189.683 144.315 189.826 146 190C144.494 189.317 143.685 189.174 142 189M210 189L211 190L210 189M217 189L218 190L217 189M199 190L200 191L199 190M206 190L207 191L206 190M213 191L214 192L213 191M202 192L203 193L202 192M209 192L210 193L209 192M198 193L199 194L198 193z" fill="#b6bdd2" />
  <path d="M192 194C191.014 195.479 191 195.203 191 197C198.59 202.12 206.424 208.749 215 212C212.662 204.051 198.976 197.884 192 194z" fill="#fefefe" />
  <path d="M205 194L206 195L205 194M186 195L187 196L186 195M194 195L195 196L194 195M201 195L202 196L201 195M208 196L209 197L208 196M197 197L198 198L197 197M204 197L205 198L204 197M217 197L218 198L217 197M184 198L185 199L184 198M193 198L194 199L193 198M211 198L212 199L211 198M219 198L220 199L219 198M183 199L184 200L183 199M200 199L201 200L200 199M207 199L208 200L207 199M182 200L183 201L182 200z" fill="#b6bdd2" />
  <path d="M188 200L187 203C195.233 207.583 202.474 213.967 211 218L212 215C204.291 209.8 196.407 203.977 188 200z" fill="#fefefe" />
  <path d="M189 200L190 201L189 200M196 200L197 201L196 200M104 201L105 202L104 201M181 201L182 202L181 201M187 201L188 202L187 201M203 201L204 202L203 201M210 201L211 202L210 201M105 202L106 203L105 202M192 202L193 203L192 202M199 202L200 203L199 202M179 203L180 204L179 203M188 203L189 204L188 203M206 203L207 204L206 203M213 203L214 204L213 203M218 203L219 204L218 203M104 204L104 207C104.696 205.446 104.696 205.554 104 204M178 204L179 205L178 204M195 204L196 205L195 204M202 204L203 205L202 204M177 205L178 206L177 205M184 205L185 206L184 205M191 205L192 206L191 205M216 205L217 206L216 205z" fill="#b6bdd2" />
  <path d="M182 207C187.27 212.439 199.357 221.824 207 222C203.335 215.96 189.13 205.841 182 207z" fill="#fefefe" />
  <path d="M198 206L199 207L198 206M205 206L206 207L205 206M110 207L111 208L110 207M174 207L175 208L174 207M187 207L188 208L187 207M194 207L195 208L194 207M208 208L209 209L208 208M171 209L172 210L171 209M190 209L191 210L190 209M197 209L198 210L197 209M215.333 209.667C215.278 209.722 215.222 210.778 215.667 210.333C215.722 210.278 215.778 209.222 215.333 209.667z" fill="#b6bdd2" />
  <path d="M177 211C180.582 216.904 194.056 226.421 201 226C196.258 220.262 184.572 211.175 177 211z" fill="#fefefe" />
  <path d="M179 210L180 211L179 210M186 210L187 211L186 210M211 210L212 211L211 210M105 211C99.2438 215.361 87.0511 213 80 213C85.3113 215.565 94.0983 214.055 100 214C102.529 213.976 106.226 214.252 105 211M116 211L117 212L116 211M167 211L168 212L167 211M193 211L194 212L193 211M200 211L201 212L200 211M165 212L166 213L165 212M182 212L183 213L182 212M189 212L190 213L189 212M121 213L122 214L121 213M162 213L163 214L162 213M178 213L179 214L178 213M196 213L197 214L196 213M203 213L204 214L203 213M209 213L210 214L209 213M125.667 214.333C125.222 214.778 126.278 214.722 126.333 214.667C126.778 214.222 125.722 214.278 125.667 214.333M158.667 214.333C158.222 214.778 159.278 214.722 159.333 214.667C159.778 214.222 158.722 214.278 158.667 214.333z" fill="#b6bdd2" />
  <path d="M170 215C175.326 221.444 186.511 229.431 195 230C189.976 224.518 177.578 214.541 170 215z" fill="#fefefe" />
  <path d="M185 214L186 215L185 214M192 214L193 215L192 214M130.667 215.333C130.222 215.778 131.278 215.722 131.333 215.667C131.778 215.222 130.722 215.278 130.667 215.333M152 215C153.248 215.685 153.548 215.749 155 216C153.752 215.315 153.452 215.251 152 215M169 215L170 216L169 215M174 215L175 216L174 215M181 215L182 216L181 215M199 215L200 216L199 215M206 215L207 216L206 215z" fill="#b6bdd2" />
  <path d="M111 216C113.154 223.325 124.814 229.614 132 231C128.45 224.511 117.821 218.585 111 216z" fill="#fefefe" />
  <path d="M120 216L121 217L120 216M139 216C141.613 217.098 144.165 216.993 147 217C144.387 215.902 141.835 216.007 139 216M170 216L171 217L170 216M188 216L189 217L188 216M195 216L196 217L195 216M211 216L212 217L211 216z" fill="#b6bdd2" />
  <path d="M121 217C123.974 219.848 127.406 221.999 131 224C130.098 218.546 125.863 218.007 121 217z" fill="#fefefe" />
  <path d="M123 217L124 218L123 217z" fill="#b6bdd2" />
  <path d="M161 218C167.081 223.824 177.547 231.876 186 233C182.072 226.526 168.652 217.597 161 218z" fill="#fefefe" />
  <path d="M177 217L178 218L177 217M184 217L185 218L184 217M202 217L203 218L202 217M209 217L210 218L209 217M87 218L88 219L87 218z" fill="#b6bdd2" />
  <path d="M88 218C92.5791 223.541 100.965 229.347 108 231C103.331 225.35 94.978 220.224 88 218z" fill="#fefefe" />
  <path d="M90 218L91 219L90 218M97 218L98 219L97 218z" fill="#b6bdd2" />
  <path d="M98 218C103.445 223.941 112.801 230.557 121 231C115.555 225.059 106.199 218.443 98 218z" fill="#fefefe" />
  <path d="M110 218L111 219L110 218M122 218L123 219L122 218M127 218L128 219L127 218M166 218L167 219L166 218M173 218L174 219L173 218M191 218L192 219L191 218M198 218L199 219L198 218M111 219L112 220L111 219M162 219L163 220L162 219M180 219L181 220L180 219M187 219L188 220L187 219M205 219L206 220L205 219M93 220L94 221L93 220M100 220L101 221L100 220M125 220L126 221L125 220M131 220L131 224C131.71 222.241 131.71 221.759 131 220z" fill="#b6bdd2" />
  <path d="M151 220C157.122 225.863 167.374 233.422 176 234C170.177 227.646 159.784 220.261 151 220z" fill="#fefefe" />
  <path d="M169 220L170 221L169 220M176 220L177 221L176 220M194 220L195 221L194 220M114 221L115 222L114 221M120 221L121 222L120 221z" fill="#b6bdd2" />
  <path d="M140 221C145.676 226.436 153.982 232.566 162 233C156.324 227.564 148.018 221.434 140 221z" fill="#fefefe" />
  <path d="M145 221L146 222L145 221M152 221L153 222L152 221M158 221L159 222L158 221M165 221L166 222L165 221M183 221L184 222L183 221M190 221L191 222L190 221M96 222L97 223L96 222M103 222L104 223L103 222M109 222L110 223L109 222M128 222L129 223L128 222M134 222L135 223L134 222M141 222L142 223L141 222M172 222L173 223L172 222M179 222L180 223L179 222M197 222L198 223L197 222M123 223L124 224L123 223M148 223L149 224L148 223M155 223L156 224L155 223M161 223L162 224L161 223M168 223L169 224L168 223M186 223L187 224L186 223M193 223L194 224L193 223M112 224L113 225L112 224M137 224L138 225L137 224M144 224L145 225L144 224M175 224L176 225L175 224M182 224L183 225L182 224M200 224L201 225L200 224M126 225L127 226L126 225M151 225L152 226L151 225M158 225L159 226L158 225M164 225L165 226L164 225M171 225L172 226L171 225M189 225L190 226L189 225M196 225L197 226L196 225M201 225L202 226L201 225M109 226L110 227L109 226M115 226L116 227L115 226M140 226L141 227L140 226M147 226L148 227L147 226M178 226L179 227L178 226M185 226L186 227L185 226M129 227L130 228L129 227M154 227L155 228L154 227M161 227L162 228L161 227M167 227L168 228L167 227M174 227L175 228L174 227M192 227L193 228L192 227M112 228L113 229L112 228M118 228L119 229L118 228M125 228L126 229L125 228M143 228L144 229L143 228M150 228L151 229L150 228M181 228L182 229L181 228M188 228L189 229L188 228M157 229L158 230L157 229M164 229L165 230L164 229M170 229L171 230L170 229M177 229L178 230L177 229M107 232L110 232L109 230C107.365 230.545 107.545 230.365 107 232M117 231C119.052 231.874 120.747 231.953 123 232C120.871 230.75 119.506 230.84 117 231M128 230L129 231L128 230M132 230L130 231C131.482 231.791 132.796 231.87 132 230M153 230L154 231L153 230M166 230L167 231L166 230M184 230L185 231L184 230M191.667 230.333C191.222 230.778 192.278 230.722 192.333 230.667C192.778 230.222 191.722 230.278 191.667 230.333M160 231L161 232L160 231M173 231L174 232L173 231M180 231L181 232L180 231M156 232L157 233L156 232M169 232L170 233L169 232M186 232L187 233L186 232M159 233C160.769 233.779 162.036 233.912 164 234C162.231 233.221 160.964 233.088 159 233M176 233L177 234L176 233z" fill="#b6bdd2" />
</svg>